# xmcd
#
# Track frame offsets: 
#        150
#        11382
#        21110
#        33978
#        47195
#        57194
#        69792
#        78377
#        86117
#        96759
#        108835
#        124288
#
# Disc length: 1751 seconds
#
# Revision: 0
# Processed by: cddbd v1.5.1PL0 Copyright (c) Steve Scherf et al.
# Submitted via: ExactAudioCopy v0.95a5
#
DISCID=8e06d50c
DTITLE=Johnny Horton - Johnny Horton
DYEAR=2004
DGENRE=Country
TTITLE0=Battle Of New Orleans
TTITLE1=Honky Tonk Man
TTITLE2=Sink The Bismark
TTITLE3=All For The Love Of A Girl
TTITLE4=Johnny Reb
TTITLE5=Same Old Tale The Crow Told Me
TTITLE6=Don't Like I Did
TTITLE7=I'm A One Woman Man
TTITLE8=Honky Tonk Hardwood Floor
TTITLE9=When It's Springtime In Alaska
TTITLE10=Whispering Pines
TTITLE11=Lets Take The Long Way Home
EXTD=
EXTT0=
EXTT1=
EXTT2=
EXTT3=
EXTT4=
EXTT5=
EXTT6=
EXTT7=
EXTT8=
EXTT9=
EXTT10=
EXTT11=
PLAYORDER=
